<?xml version="1.0" encoding="utf-8"?>
<!-- Generator: Adobe Illustrator 24.0.1, SVG Export Plug-In . SVG Version: 6.00 Build 0)  -->
<svg version="1.1" id="Layer_1" xmlns="http://www.w3.org/2000/svg" xmlns:xlink="http://www.w3.org/1999/xlink" x="0px" y="0px"
	 viewBox="0 0 1038.8 689.6" style="enable-background:new 0 0 1038.8 689.6;" xml:space="preserve">
<style type="text/css">
	.st0{fill:#F58D88;}
	.st1{fill:#CD3B27;}
	.st2{fill:#F47D68;}
	.st3{fill:#E72F25;}
	.st4{fill:#EF3E3C;}
	.st5{fill:#ED1E24;}
	.st6{fill:#1D4592;}
	.st7{fill:#374EA2;}
	.st8{fill:#89C2EA;}
	.st9{fill:#4B81C2;}
	.st10{fill:#424CA0;}
	.st11{fill:#1B56A6;}
	.st12{fill:#1D417A;}
	.st13{fill:#2B338B;}
	.st14{fill:#9DC0E6;}
	.st15{fill:#93B8E2;}
	.st16{fill:#58BAE9;}
	.st17{fill:#2B5CAA;}
	.st18{fill:#028DBD;}
	.st19{fill:#6E79BA;}
	.st20{fill:#005E8E;}
	.st21{fill:#4D94D0;}
	.st22{fill:#4F8DCB;}
	.st23{fill:#3678BD;}
	.st24{fill:#0093C7;}
	.st25{fill:#BC1F45;}
	.st26{fill:#4877BB;}
	.st27{fill:#D94926;}
	.st28{fill:#00A9DB;}
	.st29{fill:#EE2331;}
	.st30{fill:#AA1F24;}
	.st31{fill:#3377BC;}
	.st32{fill:#C24727;}
	.st33{fill:#829BCF;}
	.st34{fill:#C8E6F8;}
	.st35{fill:#3C63AE;}
	.st36{fill:#467BBE;}
	.st37{fill:#75B5E3;}
	.st38{fill:#F26972;}
	.st39{fill:#13507D;}
	.st40{fill:#226DA6;}
	.st41{fill:#6CB0E1;}
	.st42{fill:#567DBF;}
	.st43{fill:#86B5E1;}
	.st44{fill:#79164A;}
	.st45{fill:#234374;}
	.st46{fill:#3B65AF;}
	.st47{fill:#B42024;}
	.st48{fill:#EF3C27;}
	.st49{fill:#F15A47;}
	.st50{fill:#EE2C2A;}
	.st51{fill:#F79572;}
	.st52{fill:#4987C7;}
	.st53{fill:#961B1E;}
	.st54{fill:#B5302D;}
	.st55{fill:#EE2424;}
	.st56{fill:#74ABDC;}
	.st57{fill:#C7231C;}
	.st58{fill:#F69B9A;}
	.st59{fill:#293E99;}
	.st60{fill:#CA4527;}
	.st61{fill:#8D182C;}
	.st62{fill:#EE232E;}
	.st63{fill:#E41E26;}
	.st64{fill:#EE2F24;}
	.st65{fill:#EF3824;}
	.st66{fill:#BA2025;}
	.st67{fill:#C52126;}
	.st68{fill:#4D86C6;}
	.st69{fill:#F48170;}
	.st70{fill:#4468B2;}
	.st71{fill:#F26C5D;}
	.st72{fill:#921A1C;}
	.st73{fill:#BD2025;}
	.st74{fill:#E92C24;}
	.st75{fill:#21418E;}
	.st76{fill:#436EB5;}
	.st77{fill:#EF3C34;}
	.st78{fill:#F7A3A5;}
	.st79{fill:#C92027;}
	.st80{fill:#BD2B20;}
	.st81{fill:#426EB6;}
	.st82{fill:#32499E;}
	.st83{fill:#F47C65;}
	.st84{fill:#EF3E5A;}
	.st85{fill:#F15B42;}
	.st86{fill:#A7C4E7;}
	.st87{fill:#465FAB;}
	.st88{fill:#596FB5;}
	.st89{fill:#3953A4;}
	.st90{fill:#2C2B7D;}
	.st91{fill:#1B4A83;}
	.st92{fill:#F05043;}
	.st93{fill:#F26545;}
	.st94{fill:#224085;}
	.st95{fill:#AE2A24;}
	.st96{fill:#F15633;}
	.st97{fill:#609BD3;}
	.st98{fill:#92AFDC;}
	.st99{fill:#3D58A7;}
	.st100{fill:#348ECD;}
	.st101{fill:#3357A7;}
	.st102{fill:#B6C9E8;}
	.st103{fill:#85ABDA;}
	.st104{fill:#99C3E8;}
	.st105{fill:#BC3A26;}
	.st106{fill:#C3202C;}
	.st107{fill:#134B98;}
	.st108{fill:#36479D;}
	.st109{fill:#B9465D;}
	.st110{fill:#F69B99;}
	.st111{fill:#CF2026;}
	.st112{fill:#EF3B39;}
	.st113{fill:#F15D5E;}
	.st114{fill:#7EA9DA;}
	.st115{fill:#A70E13;}
	.st116{fill:#A997B4;}
	.st117{fill:#4269B2;}
	.st118{fill:#CF2027;}
	.st119{fill:#252667;}
	.st120{fill:#3E63AE;}
	.st121{fill:#7495CD;}
	.st122{fill:#A2D0F0;}
	.st123{fill:#EE3255;}
	.st124{fill:#F8A89A;}
	.st125{fill:#A41E21;}
	.st126{fill:#C82127;}
	.st127{fill:#3F5CAA;}
	.st128{opacity:0.13;}
</style>
<g>
	<g id="Layer_1_1_">
		<g id="US_mosaic">
			<polygon class="st0" points="955.2,72.2 947,84.7 939,95.3 931,75.6 914,33.2 917.8,25.6 925.4,25.6 935.5,52.1 941.9,57.8 
				945.4,64.9 			"/>
			<polygon class="st1" points="931,75.6 939,95.3 931.4,92.9 930.9,108.7 928.2,111.7 926.5,110.2 901,85.3 899.2,64.3 			"/>
			<polygon class="st2" points="938.7,161.1 935.2,170.6 919,179.2 910.4,186.9 882.5,184.5 922.5,122.8 920.7,134.3 921.9,154.4 
				932.9,164.2 			"/>
			<polygon class="st3" points="914,33.2 931,75.6 899.2,64.3 896.7,35.6 901,31.1 			"/>
			<polygon class="st4" points="928.2,111.7 923.2,117.3 922.5,122.7 922.5,122.8 882.5,184.5 864.5,112.7 883,103.9 901,85.3 
				926.5,110.2 			"/>
			<polygon class="st5" points="910.4,186.9 886.8,208.1 885,218.4 853,231.4 854.5,228.9 882.5,184.5 			"/>
			<polygon class="st6" points="887,335.6 891.2,343 884.8,351.2 876.9,352.7 884.8,362.7 857.8,398.1 871.4,314.6 880.8,314.6 
				885.4,326.8 877.2,333.8 872.9,333.8 873.7,338.6 			"/>
			<polygon class="st7" points="885,218.4 890.2,224.8 885.9,255.8 871,247.9 869.2,246.2 853,231.4 			"/>
			<polygon class="st8" points="871,247.9 884.5,268.3 881,305.3 876.9,301.9 877.2,287.2 863.9,252.3 857.8,261.6 813,314.1 
				748.2,252.5 757.2,250.7 757.2,251.4 869.2,246.2 			"/>
			<polygon class="st9" points="864.5,112.7 882.5,184.5 833.8,148.6 833.8,148.6 835.5,126.7 			"/>
			<polygon class="st10" points="882.5,184.5 854.5,228.9 853.4,228.3 817.5,171.5 832.9,159.6 833.8,148.6 833.8,148.6 			"/>
			<polygon class="st11" points="870.9,301.2 871.4,314.6 857.8,398.1 813,314.1 857.8,261.6 864.5,283.3 850.5,278.7 850.8,287 
				864.7,288.2 			"/>
			<polygon class="st12" points="869.2,246.2 757.2,251.4 757.2,250.7 853,231.4 			"/>
			<polygon class="st13" points="859.5,575.3 861.5,609.8 849.2,615 841,556.9 			"/>
			<polygon class="st14" points="859.2,568.6 859.5,575.3 841,556.9 851.7,554.7 			"/>
			<polygon class="st15" points="813,314.1 857.8,398.1 782.5,370.3 			"/>
			<polygon class="st16" points="857.8,398.1 827.2,438 782,370.9 782.5,370.3 			"/>
			<polygon class="st17" points="854.5,228.9 853,231.4 757.2,250.7 748.2,252.5 753.2,236.4 799.2,190.6 794.5,180.9 805.4,173.6 
				814.5,173.6 817.5,171.5 853.4,228.3 			"/>
			<polygon class="st18" points="851.7,554.7 841,556.9 844,540.3 			"/>
			<polygon class="st19" points="841,556.9 849.2,615 839,602.2 826.5,583 			"/>
			<polygon class="st20" points="835,523.9 844,540.3 841,556.9 816.4,557.4 816.4,556.9 			"/>
			<polygon class="st21" points="841,556.9 826.5,583 816.4,575.3 			"/>
			<polygon class="st22" points="841,556.9 816.4,575.3 812.2,572.3 811.4,557.4 816.4,557.4 			"/>
			<polygon class="st23" points="815.8,488 835,523.9 816.4,556.9 791.9,469.7 790.5,465 820.2,468.8 			"/>
			<polygon class="st24" points="782,370.9 827.2,438 823.7,453.9 790.5,465 			"/>
			<polygon class="st6" points="823.7,453.9 820.2,468.8 790.5,465 			"/>
			<polygon class="st25" points="816.4,556.9 816.4,557.4 811.4,557.4 803.9,536.1 780.7,517.8 780.7,517.8 790.5,470 791.9,469.7 
							"/>
			<polygon class="st26" points="813,314.1 782.5,370.3 781.9,370.1 748.2,252.5 			"/>
			<polygon class="st27" points="790.5,465 791.9,469.7 790.5,470 748.2,520 732.5,510.5 716.9,517.2 702.9,510.1 658.9,487.5 			
				"/>
			<polygon class="st28" points="782,370.9 790.5,465 680.5,426.1 			"/>
			<polygon class="st29" points="790.5,470 780.7,517.8 773,511.7 754.5,523.9 748.2,520 			"/>
			<polygon class="st30" points="790.5,465 658.9,487.5 680.5,426.1 			"/>
			<polygon class="st31" points="781.9,370.1 782,370.9 642.5,404.3 723.2,348.5 			"/>
			<polygon class="st32" points="782,370.9 680.5,426.1 642.5,404.3 			"/>
			<polygon class="st33" points="748.2,252.5 781.9,370.1 723.2,348.5 			"/>
			<polygon class="st34" points="753.2,236.4 748.2,252.5 689.5,196.8 723.2,176.9 720.4,188.2 721.9,191.3 731,178.8 741.5,192.8 
				746.2,208.9 738.7,232.7 			"/>
			<polygon class="st35" points="748.2,252.5 723.2,348.5 642.5,404.3 698.8,268.2 			"/>
			<polygon class="st36" points="748.2,252.5 698.8,268.2 687.2,222 688.5,214.4 680.5,188.2 689.5,196.8 			"/>
			<polygon class="st37" points="718.5,154.2 724.8,171.5 723.2,176.9 689.5,196.8 680.5,188.2 683.5,165.1 689,168.8 693.5,157.2 
				696.7,145 			"/>
			<polygon class="st38" points="716.9,517.2 705.2,522.1 701.5,513 702.9,510.1 			"/>
			<polygon class="st39" points="708,136.7 689.2,138 673.4,152 669.7,150.5 667.9,154.6 661.5,135.5 661,134.6 688.5,122.5 
				690.9,126.1 			"/>
			<polygon class="st38" points="702.9,510.1 701.5,513 676,526.4 659.5,525.7 679.2,532.2 685.4,553.8 671.4,546.8 668.8,561.4 
				655.7,555 650.9,552.5 658.9,487.5 			"/>
			<polygon class="st40" points="687.2,222 698.8,268.2 697,267.2 697,267.2 671.9,250.5 673.2,248.2 683.2,244.9 			"/>
			<polygon class="st41" points="698.8,268.2 642.5,404.3 641.7,285.4 			"/>
			<polygon class="st42" points="698.8,268.2 641.7,285.4 570.9,242 572.5,241.4 572.7,242 697,267.2 697,267.2 			"/>
			<polygon class="st43" points="671.9,250.5 697,267.2 572.7,242 572.5,241.4 628.9,222 			"/>
			<polygon class="st44" points="680.5,426.1 658.9,487.5 645.7,419.9 642.5,404.3 			"/>
			<polygon class="st40" points="662,223.9 673.2,248.2 671.9,250.5 628.9,222 658.9,135.5 661,134.6 661.5,135.5 667.9,154.6 
				663.8,164.3 657,180.3 666.5,167.2 			"/>
			<polygon class="st45" points="653,129.2 658.9,135.5 551.2,160.7 592,141 605.5,134.1 608.5,142.5 646.7,115.8 641.2,129.5 			
				"/>
			<polygon class="st46" points="658.9,135.5 628.9,222 546.2,164.3 545.8,163.3 551.2,160.7 			"/>
			<polygon class="st47" points="645.7,419.9 658.9,487.5 635.4,539.5 548.4,493.2 			"/>
			<polygon class="st48" points="635.4,539.5 658.9,487.5 650.9,552.5 633.7,543.4 			"/>
			<polygon class="st49" points="642.5,404.3 645.7,419.9 548.4,493.2 548.4,360.3 			"/>
			<polygon class="st50" points="641.7,285.4 642.5,404.3 548.4,360.3 			"/>
			<polygon class="st51" points="641.7,285.4 548.4,360.3 570.9,242 			"/>
			<polygon class="st5" points="548.4,493.2 635.4,539.5 633.7,543.4 626,548.6 597.2,548.6 584.4,559.3 581.2,551.4 578.2,568.9 
				558.5,580.4 558,577 			"/>
			<polygon class="st52" points="628.9,222 572.5,241.4 570.9,242 543.7,164.3 545.8,163.3 546.2,164.3 			"/>
			<polygon class="st53" points="617.8,106.6 592,141 551.2,160.7 545.8,163.3 543.7,164.3 570.9,99.8 571,97.9 578.9,98.3 
				594,106.6 			"/>
			<polygon class="st54" points="558.5,580.4 578.2,568.9 577.7,572.3 567.5,582 558.5,582 			"/>
			<polygon class="st55" points="571,97.9 570.9,99.8 543.7,164.3 534.2,88.6 544.4,82.8 550.5,96.9 			"/>
			<polygon class="st56" points="543.7,164.3 570.9,242 528.5,252.5 528.9,250.7 			"/>
			<polygon class="st57" points="570.9,242 548.4,360.3 536.5,303.8 			"/>
			<polygon class="st58" points="570.9,242 536.5,303.8 487.4,296.6 			"/>
			<polygon class="st59" points="570.9,242 487.4,296.6 528.5,252.5 			"/>
			<polygon class="st60" points="558.5,580.4 558.5,582 554.8,582 551.4,590 511.7,637.4 504.1,632 497.4,613.5 473.6,575.7 
				459.8,559.8 			"/>
			<polygon class="st61" points="558,577 558.5,580.4 459.8,559.8 450.8,560.2 450.8,557.9 499.5,515.4 			"/>
			<polygon class="st62" points="548.4,493.2 558,577 499.5,515.4 450.8,458.5 			"/>
			<polygon class="st54" points="551.4,590 540.7,615 546.5,650.3 523.9,646.1 511.7,637.4 			"/>
			<polygon class="st63" points="548.4,360.3 548.4,493.2 499.5,426.4 			"/>
			<polygon class="st64" points="536.5,303.8 548.4,360.3 467.2,383.7 			"/>
			<polygon class="st65" points="548.4,360.3 499.5,426.4 467.2,383.7 			"/>
			<polygon class="st66" points="499.5,426.4 548.4,493.2 450.8,458.5 			"/>
			<polygon class="st67" points="534.2,88.6 543.7,164.3 465.5,178.1 523.9,94.8 			"/>
			<polygon class="st68" points="543.7,164.3 528.9,250.7 528,250.6 465.5,178.1 			"/>
			<polygon class="st69" points="536.5,303.8 467.2,383.7 487.4,296.6 			"/>
			<polygon class="st70" points="528.9,250.7 528.5,252.5 487.4,296.6 465.5,178.1 528,250.6 			"/>
			<polygon class="st71" points="523.9,94.8 465.5,178.1 491.6,93.4 			"/>
			<polygon class="st72" points="467.2,383.7 499.5,426.4 450.8,458.5 			"/>
			<polygon class="st73" points="450.8,458.5 499.5,515.4 450.8,557.9 450.8,529.6 450.8,512.2 			"/>
			<polygon class="st74" points="491.6,93.4 465.5,178.1 465.3,178.5 464.4,178.1 431.1,91 			"/>
			<polygon class="st75" points="465.5,178.1 487.4,296.6 449,222 465.3,178.5 			"/>
			<polygon class="st76" points="449,222 487.4,296.6 405.6,246 			"/>
			<polygon class="st77" points="487.4,296.6 467.2,383.7 445.4,323.6 			"/>
			<polygon class="st78" points="487.4,296.6 445.4,323.6 391.7,401.1 405.6,246 			"/>
			<polygon class="st79" points="445.4,323.6 467.2,383.7 391.7,401.1 			"/>
			<polygon class="st80" points="467.2,383.7 450.8,458.5 389.3,477 391.7,401.1 			"/>
			<polygon class="st81" points="465.3,178.5 449,222 357.7,164.3 464.4,178.1 			"/>
			<polygon class="st82" points="431.1,91 464.4,178.1 357.7,164.3 424.8,90.8 			"/>
			<polygon class="st83" points="450.8,557.9 450.8,560.2 438.6,560.5 427.5,580.8 414.9,571.9 450.8,529.6 			"/>
			<polygon class="st84" points="450.8,512.2 450.8,529.6 414.9,571.9 401.8,562.6 395.9,541.3 387.7,533 389.3,477 			"/>
			<polygon class="st85" points="450.8,458.5 450.8,512.2 389.3,477 			"/>
			<polygon class="st86" points="449,222 405.6,246 357.7,164.3 			"/>
			<polygon class="st87" points="424.8,90.8 357.7,164.3 374.8,88.6 			"/>
			<polygon class="st88" points="357.7,164.3 405.6,246 318.2,241.2 318.7,240.9 321.6,239.1 			"/>
			<polygon class="st89" points="405.6,246 391.7,401.1 293.7,319.4 			"/>
			<polygon class="st90" points="405.6,246 293.7,319.4 263,274.8 			"/>
			<polygon class="st91" points="405.6,246 263,274.8 318.2,241.2 			"/>
			<polygon class="st92" points="391.7,401.1 389.3,477 336.8,401.1 			"/>
			<polygon class="st93" points="391.7,401.1 336.8,401.1 300,464.6 285.4,360.4 			"/>
			<polygon class="st94" points="391.7,401.1 285.4,360.4 293.7,319.4 			"/>
			<polygon class="st95" points="336.8,401.1 389.3,477 313.3,522 302.7,521.8 300,464.6 			"/>
			<polygon class="st96" points="389.3,477 387.7,533 367.3,513 335.1,513.9 335.1,522.7 313.3,522 			"/>
			<polygon class="st97" points="374.8,88.6 357.7,164.3 347.3,117.5 			"/>
			<polygon class="st98" points="374.8,88.6 347.3,117.5 319.3,82.1 			"/>
			<polygon class="st99" points="318.2,241.2 263,274.8 305.9,138.1 347.3,117.5 357.7,164.3 321.6,239.1 318.7,240.9 			"/>
			<polygon class="st100" points="319.3,82.1 347.3,117.5 305.9,138.1 291.9,78.8 			"/>
			<polygon class="st101" points="291.9,78.8 305.9,138.1 256.4,111.1 167.9,61.1 193.9,51.3 196.2,50.4 			"/>
			<polygon class="st36" points="305.9,138.1 263,274.8 253.1,183.8 			"/>
			<polygon class="st102" points="305.9,138.1 253.1,183.8 184.6,150.4 			"/>
			<polygon class="st103" points="305.9,138.1 184.6,150.4 256.4,111.1 			"/>
			<polygon class="st104" points="300,464.6 302.7,521.8 284.4,521.2 280.4,518.7 299.4,466.1 			"/>
			<polygon class="st105" points="285.4,360.4 300,464.6 248.7,419 			"/>
			<polygon class="st106" points="300,464.6 299.4,466.1 298.3,465.6 243.1,494.1 220.8,479.5 248.7,419 			"/>
			<polygon class="st42" points="299.4,466.1 280.4,518.7 255.7,502.4 298.3,465.6 			"/>
			<polygon class="st107" points="298.3,465.6 255.7,502.4 243.1,494.1 			"/>
			<polygon class="st108" points="263,274.8 293.7,319.4 285.4,360.4 			"/>
			<polygon class="st109" points="263,274.8 285.4,360.4 229.3,305.7 			"/>
			<polygon class="st110" points="285.4,360.4 248.7,419 207.5,381.8 207.7,381.2 			"/>
			<polygon class="st111" points="285.4,360.4 207.7,381.2 229.3,305.7 			"/>
			<polygon class="st112" points="253.1,183.8 263,274.8 201.4,274.8 184.6,150.4 			"/>
			<path class="st113" d="M263,274.8l-33.7,30.9l-30.2-30.5l0,0l2.3-0.4L263,274.8L263,274.8z"/>
			<path class="st96" d="M256.4,111.1l-71.8,39.4c-18.9-12.3-39.7-21.5-58.3-32.8l9.1-20.1l0.9-1.9l31.6-34.6L256.4,111.1z"/>
			<polygon class="st114" points="248.7,419 220.8,479.5 206.9,478.8 206.9,383.7 207.5,381.8 			"/>
			<polygon class="st115" points="229.3,305.7 207.7,381.2 206.9,381.4 199.1,275.2 			"/>
			<polygon class="st116" points="207.5,381.8 206.9,383.7 117.2,350.5 113.7,349.1 164.5,292 206.9,381.4 			"/>
			<polygon class="st117" points="206.9,383.7 206.9,478.8 182.9,477.6 177.4,454.1 163.5,443.2 161.4,432.5 154.7,432.3 			"/>
			<polygon class="st118" points="199.1,275.2 206.9,381.4 164.5,292 164.3,291.2 			"/>
			<polygon class="st119" points="206.9,383.7 154.7,432.3 116.6,352.1 117.2,350.5 			"/>
			<polygon class="st118" points="184.6,150.4 201.4,274.8 116.6,217.2 			"/>
			<path class="st120" d="M116.6,217.3l84.8,57.6l-2.3,0.4l-58.7,10.7l-38,8.3L116.6,217.3z"/>
			<path class="st121" d="M199.1,275.2L199.1,275.2l-34.8,16l-61.8,4.6l-0.1-1.6l38-8.4L199.1,275.2z"/>
			<path class="st122" d="M193.1,49l0.8,2.2l-26,9.8V39.3L193.1,49z"/>
			<path class="st123" d="M184.6,150.4l-68,66.9L103,189.9c0.1-0.3,0.2-0.7,0.3-1c1.2-3.2,2.6-6.8,1.8-10.3c-0.2-0.9-0.5-1.7-1-2.5
				c2.4-3.5,3.8-7.5,6.3-11c1.6-2.5,3.7-5.5,4.5-8.6L184.6,150.4z"/>
			<path class="st124" d="M184.6,150.4l-69.9,6l11.5-38.8C144.9,128.8,165.9,138.1,184.6,150.4z"/>
			<path class="st125" d="M167.9,61.1l-31.6,34.6c0-1.3-0.1-2.8-0.2-4.1c-0.2-2.9-0.4-5.7-0.5-8.6c0.1-1.1,0.1-2.1,0-3.2
				c0-0.1-0.1-0.2-0.1-0.3c0.9-0.7,0.5-0.9,0.2-0.8c1.2-1.7,1.5-3.8,1-5.7l24.1-9.3L167.9,61.1z"/>
			<polygon class="st81" points="164.3,291.2 164.5,292 113.7,349.1 114.4,343.3 105.4,324.1 113.9,325.4 113.3,318 117.9,315 
				111.8,311.8 107.5,315.9 102.5,310.1 102.5,301.2 99.8,296 102.6,295.8 			"/>
			<polygon class="st126" points="160.5,62.5 160.8,63.8 136.7,73 137.7,44 			"/>
			<polygon class="st127" points="116.6,352.1 154.7,432.3 144,420.3 127.8,411.2 125.7,389 112.1,359.7 113.7,349.1 117.2,350.5 
							"/>
			<path class="st90" d="M103,189.9l13.6,27.5l-14.2,77l-3.7-34.6l-2.5-22.5c0.3-0.2,0.7-0.4,1-0.8c0.8-0.7,1.4-1.5,2-2.3
				c1.4-1.7,1.8-4,1-6.1c1.6-8.7,1.1-17.6,1.3-26.6c-0.1-4.2,0.5-8.5,2-12.5C103.2,189.2,103.1,189.5,103,189.9z"/>
			<polygon class="st103" points="102.5,294.3 102.6,295.8 99.8,296 94.1,284.8 98.6,259.7 			"/>
			<polygon class="st103" points="98.6,259.7 92.7,251.9 96.2,237.1 			"/>
		</g>
	</g>
	<g id="tint" class="st128">
		<g>
			<g>
				<path d="M945.2,64.9l-3.5-7l-6.4-5.8l-10.1-26.6h-7.6l-3.7,7.6l-13.1-2.1l-4.4,4.6l2.5,28.7l1.9,21l-18,18.6l-18.4,8.8l-29,14.1
					l-1.8,21.9l-0.9,10.9l-15.5,11.8l-2.9,2.1H805l-10.8,7.4l4.6,9.7l-46.1,45.6l-14.5-3.7l7.6-23.8l-4.6-16.2l-10.3-14l-9.3,12.5
					l-1.4-3l3-11.4l1.4-5.5l-6.1-17.3l-22.1-9.2l-3.2,12.2l-4.4,11.6l-5.5-3.7l-2.9,23.1l7.8,26.2l-1.3,7.6l-3.9,22.9L673,248
					l-11-24.3l4.4-56.7l-9.5,13.1l6.8-16l4.2-9.8l1.8-4.1l3.7,1.6l15.9-14.1l18.5-1.2l-17.1-10.7l-2.3-3.7L661,134.5l-2.2,1
					l-5.8-6.4l-11.8,0.3l5.5-13.7l-38.3,26.8l-2.9-8.5l-13.6,6.9l25.8-34.4h-23.8l-15-8.3l-7.9-0.4l-20.5-1.1l-6-14l-10.1,5.8
					l-10.4,6l-32.3-1.3l-60.6-2.5l-6.3-0.2l-50.1-2l-55.5-6.6l-27.3-3.2l-95.8-28.5l-2.3,0.9l-25.9,9.8l0,0l-7,2.7L136.8,73
					c0.5,2,0.1,4-1,5.7c0.3-0.1,0.5,0.1-0.2,0.8c0,0.1,0.1,0.2,0.1,0.3c0.1,1.1,0.1,2.1,0,3.2c0.1,2.8,0.3,5.7,0.5,8.6
					c0.1,1.3,0.2,2.7,0.2,4.1l-1,1.7l-9.1,20.1l-11.6,38.8l0,0c-0.8,3.1-2.9,6.1-4.5,8.6c-2.3,3.6-3.8,7.6-6.3,11
					c0.4,0.8,0.9,1.6,1,2.5c0.9,3.6-0.5,7-1.8,10.3c-0.1,0.3-0.2,0.7-0.3,1l0,0c-1.1,3.7-1.8,7.6-1.6,11.4
					c-0.2,8.9,0.3,17.9-1.3,26.6c0.8,2,0.4,4.4-1,6.1c-0.5,0.8-1.2,1.6-2,2.3c-0.3,0.3-0.7,0.6-1,0.8l2.5,22.5l0.9,7.7l-0.9-7.7
					l-4.5,25.1l5.7,11.2l2.6,5.2v8.8l5,5.8l4.3-4l6.1,3l-4.6,3l0.5,7.3l-8.4-1.2l9,19.2l-0.9,5.8l-1.5,10.6l13.8,29.7l2.1,22.2
					l16.2,9.2l10.8,11.8l6.7,0.3l2.1,10.6l13.9,10.9l5.5,23.4l24,1.1l13.9,0.7l22.3,14.6l12.6,8.3l24.8,16.3l3.8,2.6l18.4,0.6
					l10.5,0.3l21.7,0.7v-8.8l32.1-0.9l20.4,20.1l8.2,8.1l5.8,21.3l13.2,9.4l12.6,8.9l11-20.4l12.2-0.3l9-0.2l13.9,15.8l23.8,37.7
					l6.7,18.6l7.6,5.4l12.2,8.7l22.6,4.2l-5.8-35.4l10.8-25l3.4-7.9h3.6h9.1l10.1-9.7l0.5-3.5l3-17.5l3.2,7.9l12.7-10.6h29l7.6-5.1
					l17.2,9l4.8,2.6l13.1,6.4l2.6-14.6l13.9,7l-6.1-21.7l-19.7-6.4l16.6,0.6l25.6-13.4l3.7,9.2l11.5-4.9l15.8-6.7l15.7,9.5l6.4,3.9
					l18.6-12.2l7.6,6l0,0l23.1,18.4l7.6,21.3l0.9,15l4.1,3l10.2,7.7l12.5,19.2l10.1,12.8l12.5-5.1l-2-34.5l-0.3-6.7l-7.6-14.1
					l-7.7-14.3l-8.8-16.4L815.6,488l4.5-19.2l3.4-14.8l3.7-15.8l30.5-40l27-35.4l-7.8-10l7.8-1.6l6.4-8.3l-4.1-7.4l-13.4,2.9
					l-0.9-4.8h4.4l8.1-7l-4.6-12.2h-9.3l-0.5-13.4l-6.1-13.1l-13.9-1.2l-0.3-8.3l13.9,4.6l-6.7-21.7l6-9.5l13.4,35.3l-0.3,14.6
					l4.1,3.3l3.5-36.8L871,247.9l14.8,7.9l4.4-31l-5.3-6.4l1.8-10.4l23.6-21.2l8.6-7.7l16.2-8.5l3.5-9.5l-5.8,3l-11.1-9.7l-1.1-20.1
					l1.8-11.6l0,0l0.9-5.5l4.9-5.6l2.6-3l0.5-15.8l7.6,2.5l8.1-10.7l8.1-12.5L945.2,64.9z M245.5,104.9l10.8,6.1l-71.8,39.4
					L151,183.4l33.6-32.9l71.8-39.4L245.5,104.9z M116.5,217.2l84.8,57.6h61.5h-61.5L116.5,217.2L116.5,217.2z M102.5,295.8
					L102.5,295.8l61.8-4.7l34.7-16l0,0l-34.8,16L102.5,295.8z M206.8,381.3l0.8-0.2l-0.2,0.7L206.8,381.3z M782,370.8l-0.2-0.8
					l0.5,0.2L782,370.8z"/>
				<polygon points="193,48.9 167.7,39.3 167.7,61 193.7,51.1 				"/>
				<polygon points="160.4,62.5 137.6,43.9 136.6,72.9 160.7,63.8 				"/>
				<polygon points="92.6,251.9 98.6,259.6 96.1,237.1 				"/>
			</g>
		</g>
	</g>
</g>
</svg>
